<?xml version="1.0" standalone="no"?>
<!DOCTYPE svg PUBLIC "-//W3C//DTD SVG 20010904//EN"
 "http://www.w3.org/TR/2001/REC-SVG-20010904/DTD/svg10.dtd">
<svg version="1.0" xmlns="http://www.w3.org/2000/svg"
 width="164.000000pt" height="55.000000pt" viewBox="0 0 164.000000 55.000000"
 preserveAspectRatio="xMidYMid meet">
<metadata>
Created by potrace 1.15, written by Peter Selinger 2001-2017
</metadata>
<g transform="translate(0.000000,55.000000) scale(0.100000,-0.100000)"
fill="#000000" stroke="none">
<path d="M230 447 c-22 -11 -25 -19 -22 -58 2 -24 10 -49 18 -56 11 -8 12 -13
4 -18 -14 -9 -3 -87 14 -97 8 -5 8 -10 0 -18 -7 -7 -9 -25 -5 -43 6 -27 14
-35 56 -50 36 -12 69 -16 115 -13 91 6 120 19 120 52 0 23 -3 25 -22 19 -13
-4 -59 -9 -103 -12 -62 -4 -89 -1 -120 12 -36 15 -38 18 -22 29 13 10 29 11
65 4 49 -10 125 -4 179 13 21 7 33 18 38 36 3 14 4 27 2 29 -2 3 -28 -1 -58
-7 -91 -20 -256 4 -246 35 2 7 40 10 110 7 61 -2 127 2 156 9 42 10 50 15 53
38 l4 27 -146 0 c-102 0 -152 4 -168 13 -30 17 -24 34 19 49 30 10 31 12 9 12
-14 1 -36 -5 -50 -12z"/>
<path d="M897 393 c-4 -3 -7 -50 -7 -103 0 -73 4 -101 15 -110 24 -20 35 -2
36 63 l1 62 19 -62 c13 -40 25 -63 34 -63 8 0 18 0 23 -1 4 0 17 28 29 63 l21
63 1 -56 c1 -36 6 -61 16 -69 28 -23 35 0 35 111 0 113 -2 119 -43 103 -8 -3
-28 -44 -43 -91 -15 -47 -29 -82 -30 -77 -32 134 -75 200 -107 167z"/>
<path d="M1213 385 c-39 -17 -55 -45 -55 -100 0 -56 16 -83 57 -101 45 -18 75
-18 103 2 18 12 20 19 12 30 -10 11 -16 11 -35 -2 -42 -27 -80 -1 -85 56 -5
52 1 70 25 86 23 15 27 15 50 0 32 -21 45 -20 45 4 0 13 -10 24 -26 30 -33 13
-52 12 -91 -5z"/>
<path d="M741 304 c-12 -15 -21 -35 -21 -45 0 -57 57 -101 108 -83 37 13 28
29 -15 29 -28 0 -38 5 -41 18 -3 13 3 17 23 17 39 0 65 18 65 43 0 33 -19 47
-61 47 -29 0 -43 -6 -58 -26z"/>
</g>
</svg>
